<svg id="visual" viewBox="0 0 900 300" width="900" height="300" xmlns="http://www.w3.org/2000/svg" xmlns:xlink="http://www.w3.org/1999/xlink" version="1.1"><rect x="0" y="0" width="900" height="300" fill="#001220"></rect><path d="M0 39L11.5 50.5C23 62 46 85 69 87C92 89 115 70 138.2 60.7C161.3 51.3 184.7 51.7 207.8 50C231 48.3 254 44.7 277 45.3C300 46 323 51 346 51.3C369 51.7 392 47.3 415.2 57.7C438.3 68 461.7 93 484.8 96C508 99 531 80 554 73.2C577 66.3 600 71.7 623 79.5C646 87.3 669 97.7 692.2 92C715.3 86.3 738.7 64.7 761.8 62C785 59.3 808 75.7 831 84.7C854 93.7 877 95.3 888.5 96.2L900 97L900 0L888.5 0C877 0 854 0 831 0C808 0 785 0 761.8 0C738.7 0 715.3 0 692.2 0C669 0 646 0 623 0C600 0 577 0 554 0C531 0 508 0 484.8 0C461.7 0 438.3 0 415.2 0C392 0 369 0 346 0C323 0 300 0 277 0C254 0 231 0 207.8 0C184.7 0 161.3 0 138.2 0C115 0 92 0 69 0C46 0 23 0 11.5 0L0 0Z" fill="#172d35"></path><path d="M0 95L11.5 95.5C23 96 46 97 69 92.2C92 87.3 115 76.7 138.2 75C161.3 73.3 184.7 80.7 207.8 81.3C231 82 254 76 277 69.2C300 62.3 323 54.7 346 52.8C369 51 392 55 415.2 60.5C438.3 66 461.7 73 484.8 72.5C508 72 531 64 554 56.8C577 49.7 600 43.3 623 43.3C646 43.3 669 49.7 692.2 52.5C715.3 55.3 738.7 54.7 761.8 58.8C785 63 808 72 831 74.5C854 77 877 73 888.5 71L900 69L900 0L888.5 0C877 0 854 0 831 0C808 0 785 0 761.8 0C738.7 0 715.3 0 692.2 0C669 0 646 0 623 0C600 0 577 0 554 0C531 0 508 0 484.8 0C461.7 0 438.3 0 415.2 0C392 0 369 0 346 0C323 0 300 0 277 0C254 0 231 0 207.8 0C184.7 0 161.3 0 138.2 0C115 0 92 0 69 0C46 0 23 0 11.5 0L0 0Z" fill="#1d4554"></path><path d="M0 21L11.5 26.2C23 31.3 46 41.7 69 46.5C92 51.3 115 50.7 138.2 46C161.3 41.3 184.7 32.7 207.8 32.2C231 31.7 254 39.3 277 45.7C300 52 323 57 346 55C369 53 392 44 415.2 44.2C438.3 44.3 461.7 53.7 484.8 58.5C508 63.3 531 63.7 554 57.3C577 51 600 38 623 37.8C646 37.7 669 50.3 692.2 58C715.3 65.7 738.7 68.3 761.8 61.5C785 54.7 808 38.3 831 31.2C854 24 877 26 888.5 27L900 28L900 0L888.5 0C877 0 854 0 831 0C808 0 785 0 761.8 0C738.7 0 715.3 0 692.2 0C669 0 646 0 623 0C600 0 577 0 554 0C531 0 508 0 484.8 0C461.7 0 438.3 0 415.2 0C392 0 369 0 346 0C323 0 300 0 277 0C254 0 231 0 207.8 0C184.7 0 161.3 0 138.2 0C115 0 92 0 69 0C46 0 23 0 11.5 0L0 0Z" fill="#215f75"></path><path d="M0 33L11.5 32.7C23 32.3 46 31.7 69 28.8C92 26 115 21 138.2 21.7C161.3 22.3 184.7 28.7 207.8 27.8C231 27 254 19 277 19.7C300 20.3 323 29.7 346 36.2C369 42.7 392 46.3 415.2 48.2C438.3 50 461.7 50 484.8 48.2C508 46.3 531 42.7 554 43.3C577 44 600 49 623 52.2C646 55.3 669 56.7 692.2 53.5C715.3 50.3 738.7 42.7 761.8 38.2C785 33.7 808 32.3 831 31C854 29.7 877 28.3 888.5 27.7L900 27L900 0L888.5 0C877 0 854 0 831 0C808 0 785 0 761.8 0C738.7 0 715.3 0 692.2 0C669 0 646 0 623 0C600 0 577 0 554 0C531 0 508 0 484.8 0C461.7 0 438.3 0 415.2 0C392 0 369 0 346 0C323 0 300 0 277 0C254 0 231 0 207.8 0C184.7 0 161.3 0 138.2 0C115 0 92 0 69 0C46 0 23 0 11.5 0L0 0Z" fill="#237a99"></path><path d="M0 36L11.5 34.3C23 32.7 46 29.3 69 23.5C92 17.7 115 9.3 138.2 10.2C161.3 11 184.7 21 207.8 22.2C231 23.3 254 15.7 277 15.5C300 15.3 323 22.7 346 21.3C369 20 392 10 415.2 11.3C438.3 12.7 461.7 25.3 484.8 27.2C508 29 531 20 554 14.5C577 9 600 7 623 5.5C646 4 669 3 692.2 7C715.3 11 738.7 20 761.8 26.2C785 32.3 808 35.7 831 32C854 28.3 877 17.7 888.5 12.3L900 7L900 0L888.5 0C877 0 854 0 831 0C808 0 785 0 761.8 0C738.7 0 715.3 0 692.2 0C669 0 646 0 623 0C600 0 577 0 554 0C531 0 508 0 484.8 0C461.7 0 438.3 0 415.2 0C392 0 369 0 346 0C323 0 300 0 277 0C254 0 231 0 207.8 0C184.7 0 161.3 0 138.2 0C115 0 92 0 69 0C46 0 23 0 11.5 0L0 0Z" fill="#2596be"></path></svg>