<svg id="visual" viewBox="0 0 900 300" width="900" height="300" xmlns="http://www.w3.org/2000/svg" xmlns:xlink="http://www.w3.org/1999/xlink" version="1.1"><rect x="0" y="0" width="900" height="300" fill="#001220"></rect><path d="M0 182L11.5 188.7C23 195.3 46 208.7 69 214.3C92 220 115 218 138.2 212.8C161.3 207.7 184.7 199.3 207.8 196.3C231 193.3 254 195.7 277 197.3C300 199 323 200 346 204C369 208 392 215 415.2 221C438.3 227 461.7 232 484.8 231.2C508 230.3 531 223.7 554 217.3C577 211 600 205 623 209.5C646 214 669 229 692.2 238.2C715.3 247.3 738.7 250.7 761.8 250.3C785 250 808 246 831 237.5C854 229 877 216 888.5 209.5L900 203L900 301L888.5 301C877 301 854 301 831 301C808 301 785 301 761.8 301C738.7 301 715.3 301 692.2 301C669 301 646 301 623 301C600 301 577 301 554 301C531 301 508 301 484.8 301C461.7 301 438.3 301 415.2 301C392 301 369 301 346 301C323 301 300 301 277 301C254 301 231 301 207.8 301C184.7 301 161.3 301 138.2 301C115 301 92 301 69 301C46 301 23 301 11.5 301L0 301Z" fill="#172d35"></path><path d="M0 249L11.5 245.7C23 242.3 46 235.7 69 235.2C92 234.7 115 240.3 138.2 237C161.3 233.7 184.7 221.3 207.8 217.2C231 213 254 217 277 224.7C300 232.3 323 243.7 346 247.7C369 251.7 392 248.3 415.2 241C438.3 233.7 461.7 222.3 484.8 219C508 215.7 531 220.3 554 228.2C577 236 600 247 623 250C646 253 669 248 692.2 246.3C715.3 244.7 738.7 246.3 761.8 246.5C785 246.7 808 245.3 831 243.3C854 241.3 877 238.7 888.5 237.3L900 236L900 301L888.5 301C877 301 854 301 831 301C808 301 785 301 761.8 301C738.7 301 715.3 301 692.2 301C669 301 646 301 623 301C600 301 577 301 554 301C531 301 508 301 484.8 301C461.7 301 438.3 301 415.2 301C392 301 369 301 346 301C323 301 300 301 277 301C254 301 231 301 207.8 301C184.7 301 161.3 301 138.2 301C115 301 92 301 69 301C46 301 23 301 11.5 301L0 301Z" fill="#1d4554"></path><path d="M0 242L11.5 243.7C23 245.3 46 248.7 69 245.2C92 241.7 115 231.3 138.2 229.5C161.3 227.7 184.7 234.3 207.8 235.5C231 236.7 254 232.3 277 233.3C300 234.3 323 240.7 346 245.2C369 249.7 392 252.3 415.2 255.2C438.3 258 461.7 261 484.8 262C508 263 531 262 554 255.3C577 248.7 600 236.3 623 236.5C646 236.7 669 249.3 692.2 255C715.3 260.7 738.7 259.3 761.8 260.2C785 261 808 264 831 263.5C854 263 877 259 888.5 257L900 255L900 301L888.5 301C877 301 854 301 831 301C808 301 785 301 761.8 301C738.7 301 715.3 301 692.2 301C669 301 646 301 623 301C600 301 577 301 554 301C531 301 508 301 484.8 301C461.7 301 438.3 301 415.2 301C392 301 369 301 346 301C323 301 300 301 277 301C254 301 231 301 207.8 301C184.7 301 161.3 301 138.2 301C115 301 92 301 69 301C46 301 23 301 11.5 301L0 301Z" fill="#215f75"></path><path d="M0 258L11.5 257C23 256 46 254 69 256.2C92 258.3 115 264.7 138.2 268.7C161.3 272.7 184.7 274.3 207.8 275.5C231 276.7 254 277.3 277 274C300 270.7 323 263.3 346 263.5C369 263.7 392 271.3 415.2 273.5C438.3 275.7 461.7 272.3 484.8 266.8C508 261.3 531 253.7 554 249.8C577 246 600 246 623 252.3C646 258.7 669 271.3 692.2 271.5C715.3 271.7 738.7 259.3 761.8 257.2C785 255 808 263 831 263C854 263 877 255 888.5 251L900 247L900 301L888.5 301C877 301 854 301 831 301C808 301 785 301 761.8 301C738.7 301 715.3 301 692.2 301C669 301 646 301 623 301C600 301 577 301 554 301C531 301 508 301 484.8 301C461.7 301 438.3 301 415.2 301C392 301 369 301 346 301C323 301 300 301 277 301C254 301 231 301 207.8 301C184.7 301 161.3 301 138.2 301C115 301 92 301 69 301C46 301 23 301 11.5 301L0 301Z" fill="#237a99"></path><path d="M0 290L11.5 288.3C23 286.7 46 283.3 69 284.5C92 285.7 115 291.3 138.2 290C161.3 288.7 184.7 280.3 207.8 277.2C231 274 254 276 277 278.8C300 281.7 323 285.3 346 284C369 282.7 392 276.3 415.2 273.3C438.3 270.3 461.7 270.7 484.8 271.8C508 273 531 275 554 275.5C577 276 600 275 623 276.3C646 277.7 669 281.3 692.2 283C715.3 284.7 738.7 284.3 761.8 280.3C785 276.3 808 268.7 831 266.3C854 264 877 267 888.5 268.5L900 270L900 301L888.5 301C877 301 854 301 831 301C808 301 785 301 761.8 301C738.7 301 715.3 301 692.2 301C669 301 646 301 623 301C600 301 577 301 554 301C531 301 508 301 484.8 301C461.7 301 438.3 301 415.2 301C392 301 369 301 346 301C323 301 300 301 277 301C254 301 231 301 207.8 301C184.7 301 161.3 301 138.2 301C115 301 92 301 69 301C46 301 23 301 11.5 301L0 301Z" fill="#2596be"></path></svg>