<svg id="visual" viewBox="0 0 900 600" width="900" height="600" xmlns="http://www.w3.org/2000/svg" xmlns:xlink="http://www.w3.org/1999/xlink" version="1.1"><rect x="0" y="0" width="900" height="600" fill="#001220"></rect><path d="M0 484L16.7 488.7C33.3 493.3 66.7 502.7 100 506.5C133.3 510.3 166.7 508.7 200 502.3C233.3 496 266.7 485 300 483.5C333.3 482 366.7 490 400 492.5C433.3 495 466.7 492 500 488.3C533.3 484.7 566.7 480.3 600 478.3C633.3 476.3 666.7 476.7 700 473C733.3 469.3 766.7 461.7 800 458C833.3 454.3 866.7 454.7 883.3 454.8L900 455L900 601L883.3 601C866.7 601 833.3 601 800 601C766.7 601 733.3 601 700 601C666.7 601 633.3 601 600 601C566.7 601 533.3 601 500 601C466.7 601 433.3 601 400 601C366.7 601 333.3 601 300 601C266.7 601 233.3 601 200 601C166.7 601 133.3 601 100 601C66.7 601 33.3 601 16.7 601L0 601Z" fill="#172d35"></path><path d="M0 509L16.7 510.2C33.3 511.3 66.7 513.7 100 514.7C133.3 515.7 166.7 515.3 200 512.2C233.3 509 266.7 503 300 506C333.3 509 366.7 521 400 520.3C433.3 519.7 466.7 506.3 500 503.7C533.3 501 566.7 509 600 514C633.3 519 666.7 521 700 519C733.3 517 766.7 511 800 509C833.3 507 866.7 509 883.3 510L900 511L900 601L883.3 601C866.7 601 833.3 601 800 601C766.7 601 733.3 601 700 601C666.7 601 633.3 601 600 601C566.7 601 533.3 601 500 601C466.7 601 433.3 601 400 601C366.7 601 333.3 601 300 601C266.7 601 233.3 601 200 601C166.7 601 133.3 601 100 601C66.7 601 33.3 601 16.7 601L0 601Z" fill="#1e4e5f"></path><path d="M0 539L16.7 538.8C33.3 538.7 66.7 538.3 100 534.3C133.3 530.3 166.7 522.7 200 522.3C233.3 522 266.7 529 300 534.8C333.3 540.7 366.7 545.3 400 546.7C433.3 548 466.7 546 500 542.2C533.3 538.3 566.7 532.7 600 529.3C633.3 526 666.7 525 700 523.8C733.3 522.7 766.7 521.3 800 524.7C833.3 528 866.7 536 883.3 540L900 544L900 601L883.3 601C866.7 601 833.3 601 800 601C766.7 601 733.3 601 700 601C666.7 601 633.3 601 600 601C566.7 601 533.3 601 500 601C466.7 601 433.3 601 400 601C366.7 601 333.3 601 300 601C266.7 601 233.3 601 200 601C166.7 601 133.3 601 100 601C66.7 601 33.3 601 16.7 601L0 601Z" fill="#23718c"></path><path d="M0 553L16.7 555.7C33.3 558.3 66.7 563.7 100 568C133.3 572.3 166.7 575.7 200 575.7C233.3 575.7 266.7 572.3 300 571.8C333.3 571.3 366.7 573.7 400 573C433.3 572.3 466.7 568.7 500 568.7C533.3 568.7 566.7 572.3 600 573C633.3 573.7 666.7 571.3 700 570C733.3 568.7 766.7 568.3 800 564.8C833.3 561.3 866.7 554.7 883.3 551.3L900 548L900 601L883.3 601C866.7 601 833.3 601 800 601C766.7 601 733.3 601 700 601C666.7 601 633.3 601 600 601C566.7 601 533.3 601 500 601C466.7 601 433.3 601 400 601C366.7 601 333.3 601 300 601C266.7 601 233.3 601 200 601C166.7 601 133.3 601 100 601C66.7 601 33.3 601 16.7 601L0 601Z" fill="#2596be"></path></svg>